<?xml version="1.0" encoding="iso-8859-1"?>
<!-- Uploaded to: SVG Repo, www.svgrepo.com, Generator: SVG Repo Mixer Tools -->
<!DOCTYPE svg PUBLIC "-//W3C//DTD SVG 1.1//EN" "http://www.w3.org/Graphics/SVG/1.1/DTD/svg11.dtd">
<svg fill="#000000" version="1.1" id="Capa_1" xmlns="http://www.w3.org/2000/svg" xmlns:xlink="http://www.w3.org/1999/xlink" 
	 width="800px" height="800px" viewBox="0 0 235.509 235.509"
	 xml:space="preserve">
<g>
	<g>
		<path d="M137.007,67.2c-5.566,0-10.066,3.491-10.066,7.819c0,4.324,4.5,7.851,10.066,7.851c5.586,0,10.059-3.527,10.059-7.851
			C147.065,70.69,142.593,67.2,137.007,67.2z"/>
		<path d="M235.509,81.793c0-6.47-5.165-11.716-11.537-11.716c-6.047,0-10.868,4.785-11.345,10.796
			c-5.418-0.062-11.982-0.196-18.314-0.398l22.494-29.597c0.833-1.13,0.985-2.621,0.36-3.879c-0.621-1.269-1.903-2.07-3.314-2.07
			H3.699c-1.414,0-2.695,0.801-3.308,2.07c-0.633,1.258-0.487,2.763,0.362,3.879l105.091,138.224
			c0.709,0.922,1.792,1.479,2.945,1.479c1.146,0,2.238-0.541,2.944-1.479l40.874-53.771c2.705,0.32,5.182,0.429,7.35,0.429
			c1.475-0.016,2.777-0.028,3.995-0.028c1.436-0.031,2.737,0.045,4.072,0.045c21.411,0,37.457-5.675,47.744-16.844
			c8.111-8.832,10.72-19.027,11.501-26.092C231.982,91.379,235.509,87.097,235.509,81.793z M185.304,80.105
			c-0.309,0-0.673-0.03-0.966-0.046c-4.632-0.276-9.329-6.981-13.897-13.481c-2.745-3.879-5.538-7.867-8.664-11.052
			c-1.158-1.194-2.444-2.238-3.779-3.174h48.374L185.304,80.105z M81.8,52.353c-1.302,21.251-14.563,40.108-34.115,48.022
			L11.169,52.353H81.8z M210.234,113.995c-9.277,10.035-24.361,14.82-44.991,14.35c-0.954,0-2.028,0-3.174,0
			c-7.807,0.253-18.354,0.192-30.974-10.632c-1.543-1.334-3.888-1.142-5.229,0.413c-1.318,1.563-1.146,3.896,0.421,5.229
			c6.523,5.583,12.728,8.608,18.31,10.304l-35.807,47.104l-38.459-50.614l15.425-15.637l23.229,31.105
			c0.733,0.966,1.842,1.486,2.972,1.486c0.781,0,1.545-0.229,2.22-0.733c1.625-1.226,1.97-3.542,0.739-5.197l-25.814-34.556
			c-0.659-0.839-1.625-1.4-2.725-1.46c-1.146-0.196-2.128,0.307-2.89,1.076l-17.695,17.949L52.27,106.387
			c21.312-9.492,35.686-30.483,36.953-54.048h44.687c0.292,0.092,0.488,0.336,0.821,0.353c0.145,0,14.387,0.425,21.772,7.999
			c2.697,2.779,5.342,6.519,7.862,10.151c5.582,7.931,11.349,16.149,19.568,16.579c9.257,0.551,22.077,0.777,30.685,0.874
			c1.299,1.917,2.998,3.468,5.17,4.354C219.034,98.57,216.807,106.907,210.234,113.995z"/>
	</g>
</g>
</svg>