<?xml version="1.0" encoding="iso-8859-1"?>
<!-- Uploaded to: SVG Repo, www.svgrepo.com, Generator: SVG Repo Mixer Tools -->
<svg height="800px" width="800px" version="1.1" id="Layer_1" xmlns="http://www.w3.org/2000/svg" xmlns:xlink="http://www.w3.org/1999/xlink" 
	 viewBox="0 0 511.999 511.999" xml:space="preserve">
<path style="fill:#A6673A;" d="M16.672,511.975c-4.266,0-8.532-1.628-11.788-4.885c-6.512-6.512-6.512-17.064,0-23.577
	l124.797-124.797c6.512-6.512,17.064-6.512,23.577,0s6.512,17.064,0,23.577L28.46,507.09
	C25.204,510.347,20.938,511.975,16.672,511.975z"/>
<path style="fill:#99522E;" d="M16.672,511.975c4.266,0,8.532-1.628,11.788-4.885l124.797-124.797
	c6.512-6.512,6.512-17.064,0-23.577L4.884,507.09C8.14,510.347,12.406,511.975,16.672,511.975z"/>
<path style="fill:#E6563A;" d="M405.057,217.918H381.47c-9.205,0-16.673-7.468-16.673-16.673v-54.067h-54.057
	c-9.205,0-16.673-7.468-16.673-16.673v-23.577c0-4.418,1.758-8.662,4.885-11.788l70.73-70.741c32.51-32.51,85.406-32.489,117.894,0
	c15.75,15.75,24.424,36.689,24.424,58.952s-8.673,43.202-24.424,58.941l-70.73,70.741
	C413.72,216.159,409.476,217.918,405.057,217.918z"/>
<path style="fill:#D9472B;" d="M364.797,201.245c0,9.205,7.468,16.673,16.673,16.673h23.588c4.418,0,8.662-1.758,11.788-4.885
	l70.73-70.741c15.75-15.739,24.424-36.678,24.424-58.941s-8.673-43.202-24.424-58.952l-122.779,122.78V201.245z"/>
<path style="fill:#FFC033;" d="M212.211,416.42c-29.884,0-59.777-11.375-82.529-34.127c-22.014-22.014-34.139-51.322-34.139-82.529
	c0-31.196,12.125-60.505,34.139-82.518l169.27-169.27c4.765-4.776,11.951-6.198,18.171-3.615c6.23,2.583,10.291,8.662,10.291,15.403
	v54.068h54.057c9.205,0,16.673,7.468,16.673,16.673v54.068h54.068c6.74,0,12.819,4.059,15.402,10.291
	c2.583,6.231,1.15,13.406-3.615,18.171L294.74,382.293C271.988,405.044,242.094,416.42,212.211,416.42z"/>
<path style="fill:#F9A926;" d="M212.211,416.42c29.884,0,59.777-11.375,82.529-34.127l169.259-169.259
	c4.765-4.765,6.198-11.94,3.615-18.171c-2.583-6.231-8.662-10.291-15.402-10.291h-54.068v-54.067c0-4.603-1.867-8.771-4.885-11.788
	L129.682,382.293C152.434,405.044,182.327,416.42,212.211,416.42z"/>
</svg>