<?xml version="1.0" encoding="UTF-8"?>
<svg id="Layer_3" data-name="Layer 3" xmlns="http://www.w3.org/2000/svg" viewBox="0 0 4690.96 1854.76">
  <defs>
    <style>
      .cls-1 {
        fill: none;
        stroke: #231f20;
        stroke-miterlimit: 10;
        stroke-width: 6px;
      }

      .cls-2, .cls-3 {
        fill: #231f20;
      }

      .cls-3 {
        font-family: NHaasGroteskDSPro-55Rg, 'Neue Haas Grotesk Display Pro';
        font-size: 72px;
      }
    </style>
  </defs>
  <line class="cls-1" x1="1392.97" y1="991.33" x2="1526.71" y2="991.27"/>
  <line class="cls-1" x1="1392.98" y1="724.12" x2="1392.98" y2="991.33"/>
  <line class="cls-1" x1="1526.61" y1="724.94" x2="1393.32" y2="724.12"/>
  <line class="cls-1" x1="1526.72" y1="857.61" x2="1392.98" y2="857.67"/>
  <line class="cls-1" x1="1527.01" y1="724.12" x2="1527.01" y2="991.27"/>
  <rect class="cls-2" x="1392.97" y="723.09" width="133.53" height="133.53"/>
  <line class="cls-1" x1="2813.9" y1="272.48" x2="2947.64" y2="272.43"/>
  <line class="cls-1" x1="2813.9" y1="5.27" x2="2813.9" y2="272.48"/>
  <line class="cls-1" x1="2947.53" y1="6.09" x2="2814.24" y2="5.27"/>
  <line class="cls-1" x1="2947.64" y1="138.76" x2="2813.9" y2="138.82"/>
  <line class="cls-1" x1="2947.93" y1="5.27" x2="2947.93" y2="272.43"/>
  <rect class="cls-2" x="2813.9" y="4.24" width="133.53" height="133.53"/>
  <line class="cls-1" x1="1911.56" y1="1701.59" x2="2045.3" y2="1701.53"/>
  <line class="cls-1" x1="1911.56" y1="1434.37" x2="1911.56" y2="1701.59"/>
  <line class="cls-1" x1="2045.19" y1="1435.2" x2="1911.9" y2="1434.38"/>
  <line class="cls-1" x1="2045.3" y1="1567.87" x2="1911.56" y2="1567.93"/>
  <line class="cls-1" x1="2045.59" y1="1434.37" x2="2045.59" y2="1701.53"/>
  <rect class="cls-2" x="1911.56" y="1433.35" width="133.53" height="133.53"/>
  <line class="cls-1" x1="2084.56" y1="1701.59" x2="2218.3" y2="1701.53"/>
  <line class="cls-1" x1="2084.56" y1="1434.37" x2="2084.56" y2="1701.59"/>
  <line class="cls-1" x1="2218.2" y1="1435.2" x2="2084.91" y2="1434.38"/>
  <line class="cls-1" x1="2218.3" y1="1567.87" x2="2084.56" y2="1567.93"/>
  <line class="cls-1" x1="2218.6" y1="1434.37" x2="2218.6" y2="1701.53"/>
  <rect class="cls-2" x="2084.56" y="1433.35" width="133.53" height="133.53"/>
  <line class="cls-1" x1="1588.86" y1="270.21" x2="1722.6" y2="270.16"/>
  <line class="cls-1" x1="1588.86" y1="3" x2="1588.86" y2="270.21"/>
  <line class="cls-1" x1="1722.5" y1="3.82" x2="1589.2" y2="3"/>
  <line class="cls-1" x1="1722.89" y1="270.15" x2="1588.86" y2="3.82"/>
  <line class="cls-1" x1="1722.89" y1="3" x2="1722.89" y2="270.15"/>
  <line class="cls-1" x1="1564.96" y1="1699.48" x2="1698.71" y2="1699.42"/>
  <line class="cls-1" x1="1564.97" y1="1432.27" x2="1564.97" y2="1699.48"/>
  <line class="cls-1" x1="1698.6" y1="1433.09" x2="1565.31" y2="1432.27"/>
  <line class="cls-1" x1="1699" y1="1699.42" x2="1564.97" y2="1433.09"/>
  <line class="cls-1" x1="1699" y1="1432.27" x2="1699" y2="1699.42"/>
  <line class="cls-1" x1="1738.26" y1="1699.48" x2="1872" y2="1699.42"/>
  <line class="cls-1" x1="1738.26" y1="1432.27" x2="1738.26" y2="1699.48"/>
  <line class="cls-1" x1="1871.89" y1="1433.09" x2="1738.6" y2="1432.27"/>
  <line class="cls-1" x1="1872.29" y1="1699.42" x2="1738.26" y2="1433.09"/>
  <line class="cls-1" x1="1872.29" y1="1432.27" x2="1872.29" y2="1699.42"/>
  <line class="cls-1" x1="1761.43" y1="271.09" x2="1895.17" y2="271.03"/>
  <line class="cls-1" x1="1761.43" y1="3.88" x2="1761.43" y2="271.09"/>
  <line class="cls-1" x1="1895.06" y1="4.7" x2="1761.77" y2="3.88"/>
  <line class="cls-1" x1="1895.17" y1="137.37" x2="1761.43" y2="137.43"/>
  <line class="cls-1" x1="1895.46" y1="3.88" x2="1895.46" y2="271.03"/>
  <circle class="cls-2" cx="1828.45" cy="204.23" r="19"/>
  <line class="cls-1" x1="1565.84" y1="989.06" x2="1699.58" y2="989"/>
  <line class="cls-1" x1="1565.84" y1="721.85" x2="1565.84" y2="989.06"/>
  <line class="cls-1" x1="1699.47" y1="722.67" x2="1566.18" y2="721.85"/>
  <line class="cls-1" x1="1699.87" y1="989" x2="1565.84" y2="722.67"/>
  <line class="cls-1" x1="1699.87" y1="721.85" x2="1699.87" y2="989"/>
  <line class="cls-1" x1="1738.4" y1="989.94" x2="1872.14" y2="989.88"/>
  <line class="cls-1" x1="1738.41" y1="722.72" x2="1738.41" y2="989.94"/>
  <line class="cls-1" x1="1872.04" y1="723.55" x2="1738.75" y2="722.72"/>
  <line class="cls-1" x1="1872.15" y1="856.22" x2="1738.41" y2="856.28"/>
  <line class="cls-1" x1="1872.44" y1="722.72" x2="1872.44" y2="989.88"/>
  <circle class="cls-2" cx="1805.42" cy="923.08" r="19"/>
  <line class="cls-1" x1="2013.37" y1="991.33" x2="2147.11" y2="991.27"/>
  <line class="cls-1" x1="2013.37" y1="724.12" x2="2013.37" y2="991.33"/>
  <line class="cls-1" x1="2147" y1="724.94" x2="2013.71" y2="724.12"/>
  <line class="cls-1" x1="2147.11" y1="857.61" x2="2013.37" y2="857.67"/>
  <line class="cls-1" x1="2147.4" y1="724.12" x2="2147.4" y2="991.27"/>
  <rect class="cls-2" x="2013.37" y="723.09" width="133.53" height="133.53"/>
  <line class="cls-1" x1="2361.22" y1="991.33" x2="2494.96" y2="991.27"/>
  <line class="cls-1" x1="2361.22" y1="724.12" x2="2361.22" y2="991.33"/>
  <line class="cls-1" x1="2494.86" y1="724.94" x2="2361.56" y2="724.12"/>
  <line class="cls-1" x1="2494.96" y1="857.61" x2="2361.22" y2="857.67"/>
  <line class="cls-1" x1="2495.25" y1="724.12" x2="2495.25" y2="991.27"/>
  <rect class="cls-2" x="2361.22" y="723.09" width="133.53" height="133.53"/>
  <line class="cls-1" x1="2186.23" y1="989.06" x2="2319.97" y2="989"/>
  <line class="cls-1" x1="2186.23" y1="721.85" x2="2186.23" y2="989.06"/>
  <line class="cls-1" x1="2319.86" y1="722.67" x2="2186.57" y2="721.85"/>
  <line class="cls-1" x1="2320.26" y1="989" x2="2186.23" y2="722.67"/>
  <line class="cls-1" x1="2320.26" y1="721.85" x2="2320.26" y2="989"/>
  <line class="cls-1" x1="2640.27" y1="991.33" x2="2774.01" y2="991.27"/>
  <line class="cls-1" x1="2640.28" y1="724.12" x2="2640.28" y2="991.33"/>
  <line class="cls-1" x1="2773.91" y1="724.94" x2="2640.62" y2="724.12"/>
  <line class="cls-1" x1="2774.02" y1="857.61" x2="2640.28" y2="857.67"/>
  <line class="cls-1" x1="2774.31" y1="724.12" x2="2774.31" y2="991.27"/>
  <rect class="cls-2" x="2640.27" y="723.09" width="133.53" height="133.53"/>
  <line class="cls-1" x1="2816.1" y1="991.33" x2="2949.84" y2="991.27"/>
  <line class="cls-1" x1="2816.11" y1="724.12" x2="2816.11" y2="991.33"/>
  <line class="cls-1" x1="2949.74" y1="724.94" x2="2816.45" y2="724.12"/>
  <line class="cls-1" x1="2949.85" y1="857.61" x2="2816.11" y2="857.67"/>
  <line class="cls-1" x1="2950.14" y1="724.12" x2="2950.14" y2="991.27"/>
  <rect class="cls-2" x="2816.1" y="723.09" width="133.53" height="133.53"/>
  <line class="cls-1" x1="2991.65" y1="991.33" x2="3125.39" y2="991.27"/>
  <line class="cls-1" x1="2991.65" y1="724.12" x2="2991.65" y2="991.33"/>
  <line class="cls-1" x1="3125.28" y1="724.94" x2="2991.99" y2="724.12"/>
  <line class="cls-1" x1="3125.39" y1="857.61" x2="2991.65" y2="857.67"/>
  <line class="cls-1" x1="3125.68" y1="724.12" x2="3125.68" y2="991.27"/>
  <rect class="cls-2" x="2991.65" y="723.09" width="133.53" height="133.53"/>
  <line class="cls-1" x1="2651.67" y1="271.09" x2="2785.41" y2="271.03"/>
  <line class="cls-1" x1="2651.67" y1="3.88" x2="2651.67" y2="271.09"/>
  <line class="cls-1" x1="2785.31" y1="4.7" x2="2652.01" y2="3.88"/>
  <line class="cls-1" x1="2785.41" y1="137.37" x2="2651.67" y2="137.43"/>
  <line class="cls-1" x1="2785.7" y1="3.88" x2="2785.7" y2="271.03"/>
  <circle class="cls-2" cx="2718.69" cy="204.23" r="19"/>
  <line class="cls-1" x1="2288.49" y1="271.09" x2="2422.23" y2="271.03"/>
  <line class="cls-1" x1="2288.49" y1="3.88" x2="2288.49" y2="271.09"/>
  <line class="cls-1" x1="2422.12" y1="4.7" x2="2288.83" y2="3.88"/>
  <line class="cls-1" x1="2422.23" y1="137.37" x2="2288.49" y2="137.43"/>
  <line class="cls-1" x1="2422.52" y1="3.88" x2="2422.52" y2="271.03"/>
  <circle class="cls-2" cx="2355.51" cy="204.23" r="19"/>
  <line class="cls-1" x1="2127.44" y1="271.09" x2="2261.19" y2="271.03"/>
  <line class="cls-1" x1="2127.45" y1="3.88" x2="2127.45" y2="271.09"/>
  <line class="cls-1" x1="2261.08" y1="4.7" x2="2127.79" y2="3.88"/>
  <line class="cls-1" x1="2261.19" y1="137.37" x2="2127.45" y2="137.43"/>
  <line class="cls-1" x1="2261.48" y1="3.88" x2="2261.48" y2="271.03"/>
  <circle class="cls-2" cx="2194.46" cy="204.23" r="19"/>
  <line class="cls-1" x1="1218.02" y1="1700.37" x2="1351.76" y2="1700.31"/>
  <line class="cls-1" x1="1218.02" y1="1433.16" x2="1218.02" y2="1700.37"/>
  <line class="cls-1" x1="1351.65" y1="1433.98" x2="1218.36" y2="1433.16"/>
  <line class="cls-1" x1="1351.76" y1="1566.65" x2="1218.02" y2="1566.71"/>
  <line class="cls-1" x1="1352.05" y1="1433.16" x2="1352.05" y2="1700.31"/>
  <circle class="cls-2" cx="1285.03" cy="1633.51" r="19"/>
  <line class="cls-1" x1="1382.92" y1="1700.37" x2="1516.66" y2="1700.31"/>
  <line class="cls-1" x1="1382.92" y1="1433.16" x2="1382.92" y2="1700.37"/>
  <line class="cls-1" x1="1516.55" y1="1433.98" x2="1383.26" y2="1433.16"/>
  <line class="cls-1" x1="1516.66" y1="1566.65" x2="1382.92" y2="1566.71"/>
  <line class="cls-1" x1="1516.95" y1="1433.16" x2="1516.95" y2="1700.31"/>
  <circle class="cls-2" cx="1449.93" cy="1633.51" r="19"/>
  <line class="cls-1" x1="349.95" y1="1699.48" x2="483.69" y2="1699.42"/>
  <line class="cls-1" x1="349.95" y1="1432.27" x2="349.95" y2="1699.48"/>
  <line class="cls-1" x1="483.58" y1="1433.09" x2="350.29" y2="1432.27"/>
  <line class="cls-1" x1="483.98" y1="1699.42" x2="349.95" y2="1433.09"/>
  <line class="cls-1" x1="483.98" y1="1432.27" x2="483.98" y2="1699.42"/>
  <line class="cls-1" x1="523.24" y1="1699.48" x2="656.98" y2="1699.42"/>
  <line class="cls-1" x1="523.24" y1="1432.27" x2="523.24" y2="1699.48"/>
  <line class="cls-1" x1="656.88" y1="1433.09" x2="523.58" y2="1432.27"/>
  <line class="cls-1" x1="657.27" y1="1699.42" x2="523.24" y2="1433.09"/>
  <line class="cls-1" x1="657.27" y1="1432.27" x2="657.27" y2="1699.42"/>
  <line class="cls-1" x1="693.58" y1="1699.48" x2="827.32" y2="1699.42"/>
  <line class="cls-1" x1="693.58" y1="1432.27" x2="693.58" y2="1699.48"/>
  <line class="cls-1" x1="827.21" y1="1433.09" x2="693.92" y2="1432.27"/>
  <line class="cls-1" x1="827.61" y1="1699.42" x2="693.58" y2="1433.09"/>
  <line class="cls-1" x1="827.61" y1="1432.27" x2="827.61" y2="1699.42"/>
  <line class="cls-1" x1="866.87" y1="1699.48" x2="1000.61" y2="1699.42"/>
  <line class="cls-1" x1="866.87" y1="1432.27" x2="866.87" y2="1699.48"/>
  <line class="cls-1" x1="1000.51" y1="1433.09" x2="867.21" y2="1432.27"/>
  <line class="cls-1" x1="1000.9" y1="1699.42" x2="866.87" y2="1433.09"/>
  <line class="cls-1" x1="1000.9" y1="1432.27" x2="1000.9" y2="1699.42"/>
  <line class="cls-1" x1="3" y1="1700.37" x2="136.74" y2="1700.31"/>
  <line class="cls-1" x1="3" y1="1433.16" x2="3" y2="1700.37"/>
  <line class="cls-1" x1="136.63" y1="1433.98" x2="3.34" y2="1433.16"/>
  <line class="cls-1" x1="136.74" y1="1566.65" x2="3" y2="1566.71"/>
  <line class="cls-1" x1="137.03" y1="1433.16" x2="137.03" y2="1700.31"/>
  <circle class="cls-2" cx="70.01" cy="1633.51" r="19"/>
  <line class="cls-1" x1="167.9" y1="1700.37" x2="301.64" y2="1700.31"/>
  <line class="cls-1" x1="167.9" y1="1433.16" x2="167.9" y2="1700.37"/>
  <line class="cls-1" x1="301.53" y1="1433.98" x2="168.24" y2="1433.16"/>
  <line class="cls-1" x1="301.64" y1="1566.65" x2="167.9" y2="1566.71"/>
  <line class="cls-1" x1="301.93" y1="1433.16" x2="301.93" y2="1700.31"/>
  <circle class="cls-2" cx="234.91" cy="1633.51" r="19"/>
  <line class="cls-1" x1="3152.62" y1="1701.59" x2="3286.36" y2="1701.53"/>
  <line class="cls-1" x1="3152.62" y1="1434.37" x2="3152.62" y2="1701.59"/>
  <line class="cls-1" x1="3286.25" y1="1435.2" x2="3152.96" y2="1434.38"/>
  <line class="cls-1" x1="3286.36" y1="1567.87" x2="3152.62" y2="1567.93"/>
  <line class="cls-1" x1="3286.65" y1="1434.37" x2="3286.65" y2="1701.53"/>
  <rect class="cls-2" x="3152.62" y="1433.35" width="133.53" height="133.53"/>
  <line class="cls-1" x1="2979.32" y1="1701.59" x2="3113.06" y2="1701.53"/>
  <line class="cls-1" x1="2979.32" y1="1434.37" x2="2979.32" y2="1701.59"/>
  <line class="cls-1" x1="3112.96" y1="1435.2" x2="2979.66" y2="1434.38"/>
  <line class="cls-1" x1="3113.06" y1="1567.87" x2="2979.32" y2="1567.93"/>
  <line class="cls-1" x1="3113.35" y1="1434.37" x2="3113.35" y2="1701.53"/>
  <rect class="cls-2" x="2979.32" y="1433.35" width="133.53" height="133.53"/>
  <line class="cls-1" x1="3325.62" y1="1701.59" x2="3459.36" y2="1701.53"/>
  <line class="cls-1" x1="3325.62" y1="1434.37" x2="3325.62" y2="1701.59"/>
  <line class="cls-1" x1="3459.26" y1="1435.2" x2="3325.97" y2="1434.38"/>
  <line class="cls-1" x1="3459.37" y1="1567.87" x2="3325.62" y2="1567.93"/>
  <line class="cls-1" x1="3459.66" y1="1434.37" x2="3459.66" y2="1701.53"/>
  <rect class="cls-2" x="3325.62" y="1433.35" width="133.53" height="133.53"/>
  <line class="cls-1" x1="2806.03" y1="1699.48" x2="2939.77" y2="1699.42"/>
  <line class="cls-1" x1="2806.03" y1="1432.27" x2="2806.03" y2="1699.48"/>
  <line class="cls-1" x1="2939.66" y1="1433.09" x2="2806.37" y2="1432.27"/>
  <line class="cls-1" x1="2940.06" y1="1699.42" x2="2806.03" y2="1433.09"/>
  <line class="cls-1" x1="2940.06" y1="1432.27" x2="2940.06" y2="1699.42"/>
  <line class="cls-1" x1="2459.08" y1="1700.37" x2="2592.82" y2="1700.31"/>
  <line class="cls-1" x1="2459.08" y1="1433.16" x2="2459.08" y2="1700.37"/>
  <line class="cls-1" x1="2592.71" y1="1433.98" x2="2459.42" y2="1433.16"/>
  <line class="cls-1" x1="2592.82" y1="1566.65" x2="2459.08" y2="1566.71"/>
  <line class="cls-1" x1="2593.11" y1="1433.16" x2="2593.11" y2="1700.31"/>
  <circle class="cls-2" cx="2526.1" cy="1633.51" r="19"/>
  <line class="cls-1" x1="2623.98" y1="1700.37" x2="2757.72" y2="1700.31"/>
  <line class="cls-1" x1="2623.98" y1="1433.16" x2="2623.98" y2="1700.37"/>
  <line class="cls-1" x1="2757.61" y1="1433.98" x2="2624.32" y2="1433.16"/>
  <line class="cls-1" x1="2757.72" y1="1566.65" x2="2623.98" y2="1566.71"/>
  <line class="cls-1" x1="2758.01" y1="1433.16" x2="2758.01" y2="1700.31"/>
  <circle class="cls-2" cx="2690.99" cy="1633.51" r="19"/>
  <line class="cls-1" x1="4380.92" y1="1702.59" x2="4514.66" y2="1702.53"/>
  <line class="cls-1" x1="4380.92" y1="1435.37" x2="4380.92" y2="1702.59"/>
  <line class="cls-1" x1="4514.55" y1="1436.2" x2="4381.26" y2="1435.38"/>
  <line class="cls-1" x1="4514.66" y1="1568.87" x2="4380.92" y2="1568.93"/>
  <line class="cls-1" x1="4514.95" y1="1435.37" x2="4514.95" y2="1702.53"/>
  <rect class="cls-2" x="4380.92" y="1434.35" width="133.53" height="133.53"/>
  <line class="cls-1" x1="4207.62" y1="1702.59" x2="4341.36" y2="1702.53"/>
  <line class="cls-1" x1="4207.62" y1="1435.37" x2="4207.62" y2="1702.59"/>
  <line class="cls-1" x1="4341.26" y1="1436.2" x2="4207.96" y2="1435.38"/>
  <line class="cls-1" x1="4341.36" y1="1568.87" x2="4207.62" y2="1568.93"/>
  <line class="cls-1" x1="4341.65" y1="1435.37" x2="4341.65" y2="1702.53"/>
  <rect class="cls-2" x="4207.62" y="1434.35" width="133.53" height="133.53"/>
  <line class="cls-1" x1="4553.92" y1="1702.59" x2="4687.66" y2="1702.53"/>
  <line class="cls-1" x1="4553.92" y1="1435.37" x2="4553.92" y2="1702.59"/>
  <line class="cls-1" x1="4687.56" y1="1436.2" x2="4554.27" y2="1435.38"/>
  <line class="cls-1" x1="4687.67" y1="1568.87" x2="4553.92" y2="1568.93"/>
  <line class="cls-1" x1="4687.96" y1="1435.37" x2="4687.96" y2="1702.53"/>
  <rect class="cls-2" x="4553.92" y="1434.35" width="133.53" height="133.53"/>
  <line class="cls-1" x1="3687.38" y1="1701.37" x2="3821.12" y2="1701.31"/>
  <line class="cls-1" x1="3687.38" y1="1434.16" x2="3687.38" y2="1701.37"/>
  <line class="cls-1" x1="3821.01" y1="1434.98" x2="3687.72" y2="1434.16"/>
  <line class="cls-1" x1="3821.12" y1="1567.65" x2="3687.38" y2="1567.71"/>
  <line class="cls-1" x1="3821.41" y1="1434.16" x2="3821.41" y2="1701.31"/>
  <circle class="cls-2" cx="3754.4" cy="1634.51" r="19"/>
  <line class="cls-1" x1="3852.28" y1="1701.37" x2="3986.02" y2="1701.31"/>
  <line class="cls-1" x1="3852.28" y1="1434.16" x2="3852.28" y2="1701.37"/>
  <line class="cls-1" x1="3985.91" y1="1434.98" x2="3852.62" y2="1434.16"/>
  <line class="cls-1" x1="3986.02" y1="1567.65" x2="3852.28" y2="1567.71"/>
  <line class="cls-1" x1="3986.31" y1="1434.16" x2="3986.31" y2="1701.31"/>
  <circle class="cls-2" cx="3919.29" cy="1634.51" r="19"/>
  <line class="cls-1" x1="4029.95" y1="1701.37" x2="4163.69" y2="1701.31"/>
  <line class="cls-1" x1="4029.95" y1="1434.16" x2="4029.95" y2="1701.37"/>
  <line class="cls-1" x1="4163.58" y1="1434.98" x2="4030.29" y2="1434.16"/>
  <line class="cls-1" x1="4163.69" y1="1567.65" x2="4029.95" y2="1567.71"/>
  <line class="cls-1" x1="4163.98" y1="1434.16" x2="4163.98" y2="1701.31"/>
  <circle class="cls-2" cx="4096.97" cy="1634.51" r="19"/>
  <text class="cls-3" transform="translate(1722.87 423.65)"><tspan x="0" y="0">1</tspan></text>
  <text class="cls-3" transform="translate(2256.95 423.65)"><tspan x="0" y="0">2</tspan></text>
  <text class="cls-3" transform="translate(2770.49 423.65)"><tspan x="0" y="0">3</tspan></text>
  <text class="cls-3" transform="translate(1593.54 1104.69)"><tspan x="0" y="0">4</tspan></text>
  <text class="cls-3" transform="translate(2229.45 1104.69)"><tspan x="0" y="0">5</tspan></text>
  <text class="cls-3" transform="translate(2861.95 1104.69)"><tspan x="0" y="0">6</tspan></text>
  <text class="cls-3" transform="translate(484.82 1837.34)"><tspan x="0" y="0">7</tspan></text>
  <text class="cls-3" transform="translate(1685.61 1837.34)"><tspan x="0" y="0">8</tspan></text>
  <text class="cls-3" transform="translate(2931.24 1837.34)"><tspan x="0" y="0">9</tspan></text>
  <text class="cls-3" transform="translate(4160.85 1838.34)"><tspan x="0" y="0">10</tspan></text>
</svg>