<?xml version="1.0" encoding="UTF-8"?>
<svg id="Layer_3" data-name="Layer 3" xmlns="http://www.w3.org/2000/svg" viewBox="0 0 1903.9 1447.56">
  <defs>
    <style>
      .cls-1 {
        fill: none;
        stroke: #231f20;
        stroke-miterlimit: 10;
        stroke-width: 6px;
      }

      .cls-2 {
        fill: #231f20;
        font-family: NHaasGroteskDSPro-55Rg, 'Neue Haas Grotesk Display Pro';
        font-size: 72px;
      }
    </style>
  </defs>
  <line class="cls-1" x1="404.09" y1="1145.42" x2="472.26" y2="1077.25"/>
  <line class="cls-1" x1="540.94" y1="1143.66" x2="472.11" y2="1074.81"/>
  <line class="cls-1" x1="543.93" y1="1145.42" x2="612.1" y2="1077.25"/>
  <line class="cls-1" x1="680.78" y1="1143.66" x2="611.95" y2="1074.81"/>
  <line class="cls-1" x1="404.09" y1="1280.54" x2="472.26" y2="1212.37"/>
  <line class="cls-1" x1="540.94" y1="1278.78" x2="472.11" y2="1209.94"/>
  <line class="cls-1" x1="543.93" y1="1280.54" x2="612.1" y2="1212.37"/>
  <line class="cls-1" x1="680.78" y1="1278.78" x2="611.95" y2="1209.94"/>
  <line class="cls-1" x1="1898.49" y1="671.62" x2="1631.44" y2="670.69"/>
  <line class="cls-1" x1="1219.76" y1="1349.79" x2="1493.58" y2="1349.73"/>
  <line class="cls-1" x1="1219.76" y1="1076.14" x2="1219.76" y2="1349.79"/>
  <line class="cls-1" x1="1493.36" y1="1076.98" x2="1220.46" y2="1076.14"/>
  <line class="cls-1" x1="1493.58" y1="1349.73" x2="1493.36" y2="1076.98"/>
  <line class="cls-1" x1="1493.36" y1="1213.87" x2="1219.76" y2="1212.91"/>
  <line class="cls-1" x1="1357.02" y1="1076.14" x2="1357.02" y2="1349.73"/>
  <line class="cls-1" x1="1295.19" y1="1078.34" x2="1222.34" y2="1150.75"/>
  <line class="cls-1" x1="1428.65" y1="1078.34" x2="1355.79" y2="1150.75"/>
  <line class="cls-1" x1="1291.92" y1="1214.03" x2="1222.34" y2="1283.2"/>
  <line class="cls-1" x1="1425.38" y1="1214.03" x2="1355.79" y2="1283.2"/>
  <line class="cls-1" x1="1217.81" y1="800.02" x2="1490.78" y2="799.96"/>
  <line class="cls-1" x1="1217.81" y1="527.21" x2="1217.81" y2="800.02"/>
  <line class="cls-1" x1="1490.57" y1="528.05" x2="1218.51" y2="527.21"/>
  <line class="cls-1" x1="1490.78" y1="799.96" x2="1490.57" y2="528.05"/>
  <line class="cls-1" x1="1490.57" y1="664.51" x2="1217.81" y2="663.56"/>
  <line class="cls-1" x1="1354.65" y1="527.21" x2="1354.65" y2="799.96"/>
  <line class="cls-1" x1="1290.55" y1="528.89" x2="1217.92" y2="601.09"/>
  <line class="cls-1" x1="1490.57" y1="603.57" x2="1413.64" y2="527.5"/>
  <line class="cls-1" x1="1418.15" y1="800.13" x2="1490.78" y2="727.93"/>
  <line class="cls-1" x1="1218.14" y1="727.72" x2="1290.33" y2="800.34"/>
  <line class="cls-1" x1="812.28" y1="1345.91" x2="1082.81" y2="1345.85"/>
  <line class="cls-1" x1="812.28" y1="1075.55" x2="812.28" y2="1345.91"/>
  <line class="cls-1" x1="1082.6" y1="1076.38" x2="812.97" y2="1075.55"/>
  <line class="cls-1" x1="1082.81" y1="1345.85" x2="1082.6" y2="1076.38"/>
  <line class="cls-1" x1="1082.6" y1="1211.62" x2="812.28" y2="1210.67"/>
  <line class="cls-1" x1="947.89" y1="1075.55" x2="947.89" y2="1345.85"/>
  <line class="cls-1" x1="947.55" y1="1140.9" x2="813.21" y2="1140.9"/>
  <line class="cls-1" x1="1014.74" y1="1073.45" x2="1014.74" y2="1207.78"/>
  <line class="cls-1" x1="948.33" y1="1272.04" x2="1082.66" y2="1272.04"/>
  <line class="cls-1" x1="881.14" y1="1346.42" x2="881.14" y2="1212.09"/>
  <line class="cls-1" x1="1217.21" y1="271.4" x2="1217.27" y2="3.66"/>
  <line class="cls-1" x1="1491.32" y1="271.4" x2="1217.21" y2="271.4"/>
  <line class="cls-1" x1="1490.48" y1="3.87" x2="1491.32" y2="270.71"/>
  <line class="cls-1" x1="1217.27" y1="3.66" x2="1490.48" y2="3.87"/>
  <line class="cls-1" x1="1353.37" y1="3.87" x2="1354.32" y2="271.4"/>
  <line class="cls-1" x1="1491.32" y1="137.18" x2="1217.27" y2="137.18"/>
  <line class="cls-1" x1="1217.27" y1="71.02" x2="1490.7" y2="71.02"/>
  <line class="cls-1" x1="1217.27" y1="204.24" x2="1490.7" y2="204.24"/>
  <line class="cls-1" x1="1630.99" y1="803.36" x2="1898.26" y2="803.3"/>
  <line class="cls-1" x1="1630.99" y1="536.26" x2="1630.99" y2="803.36"/>
  <line class="cls-1" x1="1898.05" y1="537.08" x2="1631.67" y2="536.26"/>
  <line class="cls-1" x1="1898.26" y1="803.3" x2="1898.05" y2="537.08"/>
  <line class="cls-1" x1="1764.96" y1="536.26" x2="1764.96" y2="803.3"/>
  <line class="cls-1" x1="1631.67" y1="601.71" x2="1700.95" y2="672.04"/>
  <line class="cls-1" x1="1764.43" y1="603.48" x2="1697.23" y2="536.31"/>
  <line class="cls-1" x1="1834.29" y1="536.88" x2="1763.25" y2="606.87"/>
  <line class="cls-1" x1="1830.67" y1="670.32" x2="1898.15" y2="602.82"/>
  <line class="cls-1" x1="1898.05" y1="741.86" x2="1831.77" y2="672.61"/>
  <line class="cls-1" x1="1765.67" y1="735.15" x2="1833.32" y2="804.52"/>
  <line class="cls-1" x1="1694.22" y1="804.21" x2="1764" y2="735.47"/>
  <line class="cls-1" x1="1701.28" y1="671.72" x2="1631.34" y2="738.26"/>
  <line class="cls-1" x1="678.51" y1="665.7" x2="411.45" y2="664.77"/>
  <line class="cls-1" x1="411" y1="797.44" x2="678.27" y2="797.38"/>
  <line class="cls-1" x1="411" y1="530.34" x2="411" y2="797.44"/>
  <line class="cls-1" x1="678.06" y1="531.16" x2="411.69" y2="530.34"/>
  <line class="cls-1" x1="678.27" y1="797.38" x2="678.06" y2="531.16"/>
  <line class="cls-1" x1="544.98" y1="530.34" x2="544.98" y2="797.38"/>
  <line class="cls-1" x1="480.52" y1="533.05" x2="410.2" y2="602.33"/>
  <line class="cls-1" x1="477.58" y1="664.63" x2="544.75" y2="597.43"/>
  <line class="cls-1" x1="544.75" y1="597.43" x2="613.62" y2="665.6"/>
  <line class="cls-1" x1="677.9" y1="600.2" x2="608.27" y2="530.6"/>
  <line class="cls-1" x1="615.19" y1="664.07" x2="544.75" y2="731.49"/>
  <line class="cls-1" x1="609.51" y1="796.56" x2="678.88" y2="728.91"/>
  <line class="cls-1" x1="412.98" y1="728.93" x2="481.72" y2="798.71"/>
  <line class="cls-1" x1="544.75" y1="731.49" x2="477.08" y2="664.17"/>
  <line class="cls-1" x1="813.24" y1="798.32" x2="1080.51" y2="798.26"/>
  <line class="cls-1" x1="813.24" y1="531.22" x2="813.24" y2="798.32"/>
  <line class="cls-1" x1="1080.3" y1="532.04" x2="813.93" y2="531.22"/>
  <line class="cls-1" x1="1080.51" y1="798.26" x2="1080.3" y2="532.04"/>
  <line class="cls-1" x1="1080.3" y1="665.65" x2="813.24" y2="664.72"/>
  <line class="cls-1" x1="947.22" y1="531.22" x2="947.22" y2="798.26"/>
  <line class="cls-1" x1="877.5" y1="532.04" x2="1080.51" y2="738.12"/>
  <line class="cls-1" x1="1080.51" y1="608.17" x2="1004.12" y2="531.81"/>
  <line class="cls-1" x1="813.24" y1="722.46" x2="889.04" y2="798.26"/>
  <line class="cls-1" x1="1015.47" y1="798.32" x2="813.24" y2="596.17"/>
  <line class="cls-1" x1="404.09" y1="1347.32" x2="678.79" y2="1347.26"/>
  <line class="cls-1" x1="404.09" y1="1072.79" x2="404.09" y2="1347.32"/>
  <line class="cls-1" x1="678.57" y1="1073.64" x2="404.8" y2="1072.79"/>
  <line class="cls-1" x1="678.79" y1="1347.26" x2="678.57" y2="1073.64"/>
  <line class="cls-1" x1="678.57" y1="1210.96" x2="404.09" y2="1210"/>
  <line class="cls-1" x1="541.79" y1="1072.79" x2="541.79" y2="1347.26"/>
  <line class="cls-1" x1="1626.2" y1="1349.73" x2="1900.9" y2="1349.67"/>
  <line class="cls-1" x1="1626.2" y1="1078.34" x2="1626.2" y2="1349.73"/>
  <line class="cls-1" x1="1900.68" y1="1079.17" x2="1626.91" y2="1078.34"/>
  <line class="cls-1" x1="1900.9" y1="1349.67" x2="1900.68" y2="1079.17"/>
  <line class="cls-1" x1="1900.63" y1="1214.34" x2="1626.15" y2="1213.39"/>
  <line class="cls-1" x1="1763.9" y1="1078.34" x2="1763.9" y2="1349.67"/>
  <line class="cls-1" x1="5.52" y1="271.45" x2="272.9" y2="271.4"/>
  <line class="cls-1" x1="5.52" y1="4.24" x2="5.52" y2="271.45"/>
  <line class="cls-1" x1="272.69" y1="5.06" x2="6.21" y2="4.24"/>
  <line class="cls-1" x1="272.9" y1="271.4" x2="272.69" y2="5.06"/>
  <line class="cls-1" x1="272.69" y1="138.73" x2="5.52" y2="137.79"/>
  <line class="cls-1" x1="139.56" y1="4.24" x2="139.56" y2="271.4"/>
  <line class="cls-1" x1="412.33" y1="271.45" x2="679.71" y2="271.4"/>
  <line class="cls-1" x1="412.33" y1="4.24" x2="412.33" y2="271.45"/>
  <line class="cls-1" x1="679.49" y1="5.06" x2="413.01" y2="4.24"/>
  <line class="cls-1" x1="679.71" y1="271.4" x2="679.49" y2="5.06"/>
  <line class="cls-1" x1="679.49" y1="138.73" x2="412.33" y2="137.79"/>
  <line class="cls-1" x1="546.36" y1="4.24" x2="546.36" y2="271.4"/>
  <line class="cls-1" x1="814.66" y1="271.87" x2="1082.04" y2="271.81"/>
  <line class="cls-1" x1="814.66" y1="4.65" x2="814.66" y2="271.87"/>
  <line class="cls-1" x1="1081.83" y1="5.48" x2="815.35" y2="4.65"/>
  <line class="cls-1" x1="1082.04" y1="271.81" x2="1081.83" y2="5.48"/>
  <line class="cls-1" x1="1081.83" y1="139.14" x2="814.66" y2="138.2"/>
  <line class="cls-1" x1="948.69" y1="4.65" x2="948.69" y2="271.81"/>
  <g>
    <line class="cls-1" x1="41.92" y1="102.91" x2="106.61" y2="39.82"/>
    <line class="cls-1" x1="6.21" y1="195.5" x2="80.98" y2="271.4"/>
    <line class="cls-1" x1="171.61" y1="231.75" x2="236.29" y2="168.66"/>
    <line class="cls-1" x1="6.21" y1="66.65" x2="207.9" y2="271.4"/>
    <line class="cls-1" x1="272.9" y1="206.06" x2="71.22" y2="4.44"/>
    <line class="cls-1" x1="272.69" y1="75.41" x2="202.11" y2="4.85"/>
    <line class="cls-1" x1="171.61" y1="102.91" x2="236.29" y2="39.82"/>
    <line class="cls-1" x1="41.92" y1="231.75" x2="106.61" y2="168.66"/>
  </g>
  <line class="cls-1" x1="616.95" y1="4.93" x2="546.31" y2="76.49"/>
  <line class="cls-1" x1="580.06" y1="43.24" x2="646.26" y2="111.12"/>
  <line class="cls-1" x1="546.16" y1="78.1" x2="474.22" y2="5.06"/>
  <line class="cls-1" x1="513.53" y1="44.98" x2="448.65" y2="108.26"/>
  <line class="cls-1" x1="679.55" y1="77.38" x2="546.31" y2="204.23"/>
  <line class="cls-1" x1="606.85" y1="271.4" x2="678.49" y2="199.73"/>
  <line class="cls-1" x1="580.06" y1="170.99" x2="642.86" y2="235.38"/>
  <line class="cls-1" x1="546.16" y1="205.84" x2="413.01" y2="70.68"/>
  <line class="cls-1" x1="413.01" y1="200.38" x2="484.12" y2="271.45"/>
  <line class="cls-1" x1="513.53" y1="172.72" x2="448.65" y2="236"/>
  <g>
    <line class="cls-1" x1="815.35" y1="64.47" x2="887.07" y2="137.28"/>
    <line class="cls-1" x1="948.69" y1="70.61" x2="883.79" y2="5.73"/>
    <line class="cls-1" x1="853.68" y1="103.38" x2="918.36" y2="40.29"/>
    <line class="cls-1" x1="1015.09" y1="5.15" x2="948.69" y2="70.57"/>
    <line class="cls-1" x1="1015.36" y1="137.85" x2="1081.13" y2="72.05"/>
    <line class="cls-1" x1="981.47" y1="38.27" x2="1047.36" y2="105.83"/>
    <line class="cls-1" x1="1081.99" y1="207.93" x2="1012.54" y2="137.44"/>
    <line class="cls-1" x1="949.24" y1="202.42" x2="1017.93" y2="271.09"/>
    <line class="cls-1" x1="1045.94" y1="171.33" x2="981.25" y2="234.42"/>
    <line class="cls-1" x1="876.52" y1="271.81" x2="949.24" y2="200.17"/>
    <line class="cls-1" x1="884.26" y1="136.86" x2="815.35" y2="205.8"/>
    <line class="cls-1" x1="915.34" y1="233.57" x2="852.25" y2="168.88"/>
  </g>
  <line class="cls-1" x1="1898.71" y1="270.71" x2="1898.65" y2="3"/>
  <line class="cls-1" x1="1626.6" y1="270.71" x2="1898.71" y2="270.71"/>
  <line class="cls-1" x1="1627.44" y1="3.21" x2="1626.6" y2="270.02"/>
  <line class="cls-1" x1="1898.65" y1="3" x2="1627.44" y2="3.21"/>
  <line class="cls-1" x1="1763.55" y1="3.21" x2="1762.6" y2="270.71"/>
  <line class="cls-1" x1="1626.6" y1="136.51" x2="1898.65" y2="136.51"/>
  <line class="cls-1" x1="1762.16" y1="7.56" x2="1630.66" y2="137.05"/>
  <line class="cls-1" x1="1894.86" y1="137.54" x2="1762.66" y2="7.76"/>
  <line class="cls-1" x1="1762.16" y1="267.03" x2="1894.65" y2="137.05"/>
  <line class="cls-1" x1="1630.66" y1="136.56" x2="1762.16" y2="266.83"/>
  <line class="cls-1" x1="275.11" y1="800.26" x2="275.05" y2="527.81"/>
  <line class="cls-1" x1="3" y1="800.26" x2="275.11" y2="800.26"/>
  <line class="cls-1" x1="3.84" y1="528.02" x2="3" y2="799.56"/>
  <line class="cls-1" x1="275.05" y1="527.81" x2="3.84" y2="528.02"/>
  <line class="cls-1" x1="139.95" y1="528.02" x2="139" y2="800.26"/>
  <line class="cls-1" x1="3" y1="663.68" x2="275.05" y2="663.68"/>
  <line class="cls-1" x1="271.25" y1="664.73" x2="139.05" y2="532.66"/>
  <line class="cls-1" x1="272.36" y1="796.41" x2="3.84" y2="528.02"/>
  <line class="cls-1" x1="7.06" y1="663.73" x2="138.55" y2="796.31"/>
  <line class="cls-1" x1="274.77" y1="1076.54" x2="5.6" y2="1076.54"/>
  <line class="cls-1" x1="140.19" y1="1343.73" x2="140.19" y2="1076.49"/>
  <line class="cls-1" x1="5.81" y1="1210.05" x2="274.77" y2="1210.05"/>
  <line class="cls-1" x1="5.81" y1="1343.73" x2="274.77" y2="1343.73"/>
  <line class="cls-1" x1="5.6" y1="1076.54" x2="5.81" y2="1343.73"/>
  <line class="cls-1" x1="274.77" y1="1343.73" x2="274.77" y2="1076.54"/>
  <line class="cls-1" x1="5.71" y1="1143.27" x2="72.89" y2="1076.49"/>
  <line class="cls-1" x1="5.71" y1="1143.27" x2="207.48" y2="1343.73"/>
  <line class="cls-1" x1="5.71" y1="1276.94" x2="207.48" y2="1076.49"/>
  <line class="cls-1" x1="274.77" y1="1143.27" x2="207.48" y2="1076.49"/>
  <line class="cls-1" x1="5.71" y1="1276.94" x2="72.89" y2="1343.73"/>
  <line class="cls-1" x1="72.89" y1="1343.73" x2="274.77" y2="1143.27"/>
  <line class="cls-1" x1="274.77" y1="1276.94" x2="72.89" y2="1076.49"/>
  <line class="cls-1" x1="274.77" y1="1276.94" x2="207.48" y2="1343.73"/>
  <text class="cls-2" transform="translate(127.49 361.43)"><tspan x="0" y="0">1</tspan></text>
  <text class="cls-2" transform="translate(526.34 361.43)"><tspan x="0" y="0">2</tspan></text>
  <text class="cls-2" transform="translate(932.15 361.43)"><tspan x="0" y="0">3</tspan></text>
  <text class="cls-2" transform="translate(1328.56 361.43)"><tspan x="0" y="0">4</tspan></text>
  <text class="cls-2" transform="translate(1742.25 361.43)"><tspan x="0" y="0">5</tspan></text>
  <text class="cls-2" transform="translate(118.11 887.65)"><tspan x="0" y="0">6</tspan></text>
  <text class="cls-2" transform="translate(523.8 887.65)"><tspan x="0" y="0">7</tspan></text>
  <text class="cls-2" transform="translate(931.05 887.65)"><tspan x="0" y="0">8</tspan></text>
  <text class="cls-2" transform="translate(1333.33 887.65)"><tspan x="0" y="0">9</tspan></text>
  <text class="cls-2" transform="translate(1730.74 887.65)"><tspan x="0" y="0">10</tspan></text>
  <text class="cls-2" transform="translate(115.28 1431.14)"><tspan x="0" y="0">11</tspan></text>
  <text class="cls-2" transform="translate(514.16 1431.14)"><tspan x="0" y="0">12</tspan></text>
  <text class="cls-2" transform="translate(915.38 1431.14)"><tspan x="0" y="0">13</tspan></text>
  <text class="cls-2" transform="translate(1326.66 1431.14)"><tspan x="0" y="0">14</tspan></text>
  <text class="cls-2" transform="translate(1733.15 1431.14)"><tspan x="0" y="0">15</tspan></text>
</svg>